<svg version="1.2" xmlns="http://www.w3.org/2000/svg" viewBox="0 0 512 512" width="512" height="512">
	<style>
		.s0 { fill: #25d366 } 
		.s1 { fill: #25d366;stroke: #ffffff;stroke-width: 26 } 
		.s2 { fill: #ffffff } 
	</style>
	<path fill-rule="evenodd" class="s0" d="m15 0h482c8.28 0 15 6.72 15 15v482c0 8.28-6.72 15-15 15h-482c-8.28 0-15-6.72-15-15v-482c0-8.28 6.72-15 15-15z"/>
	<path class="s1" d="m146.14 368.47l11.51-53.48c-30.63-48.32-20.53-111.88 23.56-148.32 44.1-36.45 108.42-34.4 150.11 4.79 41.68 39.18 47.7 103.25 14.05 149.52-33.65 46.26-96.46 60.26-146.58 32.68z"/>
	<path class="s2" d="m298.35 269.73c-2.47-1.64-4.94-2.47-7.4 0.82l-9.88 13.17c-2.47 1.65-4.11 2.47-7.4 0.82-12.35-6.58-29.62-13.99-44.43-38.67-0.83-3.29 0.82-4.94 2.46-6.58l7.41-11.52c1.65-1.65 0.82-3.29 0-4.94l-9.87-23.86c-2.47-6.58-4.94-5.76-7.41-5.76h-6.58c-1.65 0-4.94 0.83-8.23 4.12-18.1 18.1-10.7 43.6 2.47 60.06 2.47 3.29 18.92 32.91 54.3 48.54 26.33 11.52 32.09 9.88 39.5 8.23 9.05-0.82 18.1-8.23 22.21-15.63 0.83-2.47 4.94-13.16 1.65-14.81"/>
</svg>